<?xml version="1.0" encoding="UTF-8" standalone="no"?>
<!-- Created with Inkscape (http://www.inkscape.org/) -->
<svg
   xmlns:dc="http://purl.org/dc/elements/1.1/"
   xmlns:cc="http://web.resource.org/cc/"
   xmlns:rdf="http://www.w3.org/1999/02/22-rdf-syntax-ns#"
   xmlns:svg="http://www.w3.org/2000/svg"
   xmlns="http://www.w3.org/2000/svg"
   xmlns:sodipodi="http://inkscape.sourceforge.net/DTD/sodipodi-0.dtd"
   xmlns:inkscape="http://www.inkscape.org/namespaces/inkscape"
   sodipodi:docname="pgi1.svg"
   sodipodi:docbase="/home/kenny/workdir/pgist/resources"
   inkscape:version="0.41"
   sodipodi:version="0.32"
   id="svg1308"
   height="160.00000pt"
   width="500.28000pt">
  <defs
     id="defs3" />
  <sodipodi:namedview
     inkscape:window-y="22"
     inkscape:window-x="0"
     inkscape:window-height="544"
     inkscape:window-width="640"
     inkscape:current-layer="layer1"
     inkscape:document-units="px"
     inkscape:cy="-165.71429"
     inkscape:cx="375.00000"
     inkscape:zoom="0.35000000"
     inkscape:pageshadow="2"
     inkscape:pageopacity="0.0"
     borderopacity="1.0"
     bordercolor="#666666"
     pagecolor="#ffffff"
     id="base" />
  <metadata
     id="metadata4">
    <rdf:RDF
       id="RDF5">
      <cc:Work
         id="Work6"
         rdf:about="">
        <dc:format
           id="format7">image/svg+xml</dc:format>
        <dc:type
           rdf:resource="http://purl.org/dc/dcmitype/StillImage"
           id="type9" />
      </cc:Work>
    </rdf:RDF>
  </metadata>
  <g
     id="layer1"
     inkscape:groupmode="layer"
     inkscape:label="Layer 1">
    <path
       style="font-size:209.94371;font-style:normal;font-variant:normal;font-weight:normal;font-stretch:normal;fill:#00008e;fill-opacity:1.0000000;stroke:none;stroke-width:1.0000000px;stroke-linecap:butt;stroke-linejoin:miter;stroke-opacity:1.0000000;font-family:Bitstream Vera Serif;text-anchor:start;writing-mode:lr-tb"
       d="M 305.21293,77.549700 L 332.27599,77.549700 C 342.45872,77.549780 350.21542,74.816140 355.54612,69.348770 C 360.87661,63.813240 363.54191,55.851520 363.54202,45.463580 C 363.54191,35.007520 360.87661,27.045800 355.54612,21.578380 C 350.21542,16.111240 342.45872,13.377600 332.27599,13.377460 L 305.21293,13.377460 L 305.21293,77.549700 M 264.92589,155.45850 L 264.92589,144.59227 L 284.40308,144.59227 L 284.40308,13.377460 L 264.92589,13.377460 L 264.92589,2.4087200 L 337.29906,2.4087200 C 352.60735,2.4088700 364.73788,6.3043100 373.69067,14.095040 C 382.64322,21.817710 387.11955,32.273880 387.11969,45.463580 C 387.11955,58.585160 382.64322,69.041330 373.69067,76.832120 C 364.73788,84.623070 352.60735,88.518510 337.29906,88.518440 L 305.21293,88.518440 L 305.21293,144.59227 L 328.89311,144.59227 L 328.89311,155.45850 L 264.92589,155.45850"
       id="text2099" />
    <path
       style="font-size:209.94371;font-style:normal;font-variant:normal;font-weight:normal;font-stretch:normal;fill:#00008e;fill-opacity:1.0000000;stroke:none;stroke-width:1.0000000px;stroke-linecap:butt;stroke-linejoin:miter;stroke-opacity:1.0000000;font-family:Bitstream Vera Serif;text-anchor:start;writing-mode:lr-tb"
       d="M 605.38936,144.59227 L 624.86656,144.59227 L 624.86656,155.45850 L 565.10231,155.45850 L 565.10231,144.59227 L 584.57951,144.59227 L 584.57951,13.377460 L 565.10231,13.377460 L 565.10231,2.4087200 L 624.86656,2.4087200 L 624.86656,13.377460 L 605.38936,13.377460 L 605.38936,144.59227"
       id="text2105" />
    <path
       style="font-size:209.94371;font-style:normal;font-variant:normal;font-weight:normal;font-stretch:normal;fill:#00008e;fill-opacity:1.0000000;stroke:none;stroke-width:1.0000000px;stroke-linecap:butt;stroke-linejoin:miter;stroke-opacity:1.0000000;font-family:Bitstream Vera Serif;text-anchor:start;writing-mode:lr-tb"
       d="M 520.76832,48.026370 C 518.37625,35.246710 513.38736,25.815660 505.80163,19.733170 C 498.21566,13.582620 487.65698,10.507280 474.12555,10.507130 C 456.49349,10.507280 443.33785,16.179580 434.65859,27.524050 C 425.97924,38.868780 421.63959,56.022370 421.63962,78.984870 C 421.63959,101.46913 426.11592,118.48603 435.06864,130.03563 C 444.02126,141.58528 457.17690,147.36010 474.53559,147.36009 C 482.25804,147.36010 489.63886,146.40332 496.67810,144.48976 C 503.71711,142.57623 510.41452,139.70591 516.77036,135.87879 L 516.77036,96.411830 L 487.96461,96.411830 L 487.96461,85.443090 L 537.58022,85.443090 L 537.58022,142.54204 C 528.49071,147.80431 518.68378,151.76809 508.15939,154.43339 C 497.70310,157.03034 486.49518,158.32882 474.53559,158.32883 C 451.43625,158.32882 432.91585,151.11885 418.97432,136.69888 C 405.10107,122.21061 398.16446,102.97263 398.16447,78.984870 C 398.16446,54.792230 405.13524,35.520080 419.07683,21.168340 C 433.01836,6.7485200 451.77796,-0.46145000 475.35569,-0.46161000 C 484.10324,-0.46145000 493.12425,0.56366000 502.41874,2.6137400 C 511.78134,4.5957800 521.72496,7.6369500 532.24961,11.737270 L 532.24961,48.026370 L 520.76832,48.026370"
       id="text2119" />
    <path
       id="path1299"
       d="M 255.26498,128.58312 L 215.70488,77.115020 L 255.22940,25.507610 L 255.26498,128.58312 z "
       style="fill:#00008e;fill-opacity:1.0000000;stroke:none;stroke-width:12.500000;stroke-miterlimit:4.0000000;stroke-opacity:1.0000000" />
  </g>
</svg>
