<?xml version="1.0" encoding="UTF-8" standalone="no"?>
<!-- Created with Inkscape (http://www.inkscape.org/) -->
<svg
   xmlns:dc="http://purl.org/dc/elements/1.1/"
   xmlns:cc="http://web.resource.org/cc/"
   xmlns:rdf="http://www.w3.org/1999/02/22-rdf-syntax-ns#"
   xmlns:svg="http://www.w3.org/2000/svg"
   xmlns="http://www.w3.org/2000/svg"
   xmlns:sodipodi="http://inkscape.sourceforge.net/DTD/sodipodi-0.dtd"
   xmlns:inkscape="http://www.inkscape.org/namespaces/inkscape"
   inkscape:export-ydpi="12.300000"
   inkscape:export-xdpi="12.300000"
   inkscape:export-filename="/home/kenny/workdir/pgist/resources/pgist1.png"
   sodipodi:docname="pgist1.svg"
   sodipodi:docbase="/home/kenny/workdir/pgist/resources"
   inkscape:version="0.41"
   sodipodi:version="0.32"
   id="svg1326"
   height="200.00000pt"
   width="800.00000pt">
  <defs
     id="defs3" />
  <sodipodi:namedview
     inkscape:window-y="0"
     inkscape:window-x="0"
     inkscape:window-height="752"
     inkscape:window-width="1256"
     inkscape:current-layer="layer1"
     inkscape:document-units="px"
     inkscape:cy="120.00000"
     inkscape:cx="375.00000"
     inkscape:zoom="0.70000000"
     inkscape:pageshadow="2"
     inkscape:pageopacity="0.0"
     borderopacity="1.0"
     bordercolor="#666666"
     pagecolor="#ffffff"
     id="base" />
  <metadata
     id="metadata4">
    <rdf:RDF
       id="RDF5">
      <cc:Work
         id="Work6"
         rdf:about="">
        <dc:format
           id="format7">image/svg+xml</dc:format>
        <dc:type
           rdf:resource="http://purl.org/dc/dcmitype/StillImage"
           id="type9" />
      </cc:Work>
    </rdf:RDF>
  </metadata>
  <g
     id="layer1"
     inkscape:groupmode="layer"
     inkscape:label="Layer 1">
    <path
       id="text2099"
       d="M 145.58514,125.86148 L 172.64820,125.86148 C 182.83093,125.86156 190.58763,123.12792 195.91833,117.66055 C 201.24882,112.12502 203.91412,104.16330 203.91423,93.775360 C 203.91412,83.319300 201.24882,75.357576 195.91833,69.890163 C 190.58763,64.423018 182.83093,61.689379 172.64820,61.689237 L 145.58514,61.689237 L 145.58514,125.86148 M 105.29810,203.77028 L 105.29810,192.90405 L 124.77529,192.90405 L 124.77529,61.689237 L 105.29810,61.689237 L 105.29810,50.720498 L 177.67127,50.720498 C 192.97956,50.720651 205.11009,54.616087 214.06288,62.406818 C 223.01543,70.129490 227.49176,80.585661 227.49190,93.775360 C 227.49176,106.89694 223.01543,117.35311 214.06288,125.14390 C 205.11009,132.93485 192.97956,136.83029 177.67127,136.83022 L 145.58514,136.83022 L 145.58514,192.90405 L 169.26532,192.90405 L 169.26532,203.77028 L 105.29810,203.77028"
       style="font-size:209.94371;font-style:normal;font-variant:normal;font-weight:normal;font-stretch:normal;fill:#00008e;fill-opacity:1.0000000;stroke:none;stroke-width:1.0000000px;stroke-linecap:butt;stroke-linejoin:miter;stroke-opacity:1.0000000;font-family:Bitstream Vera Serif;text-anchor:start;writing-mode:lr-tb" />
    <path
       id="text2105"
       d="M 445.76157,192.90405 L 465.23877,192.90405 L 465.23877,203.77028 L 405.47452,203.77028 L 405.47452,192.90405 L 424.95172,192.90405 L 424.95172,61.689237 L 405.47452,61.689237 L 405.47452,50.720498 L 465.23877,50.720498 L 465.23877,61.689237 L 445.76157,61.689237 L 445.76157,192.90405"
       style="font-size:209.94371;font-style:normal;font-variant:normal;font-weight:normal;font-stretch:normal;fill:#00008e;fill-opacity:1.0000000;stroke:none;stroke-width:1.0000000px;stroke-linecap:butt;stroke-linejoin:miter;stroke-opacity:1.0000000;font-family:Bitstream Vera Serif;text-anchor:start;writing-mode:lr-tb" />
    <path
       id="text2111"
       d="M 791.68701,203.77028 L 791.68701,192.90405 L 811.26672,192.90405 L 811.26672,62.919376 L 766.26414,62.919376 L 766.26414,86.804573 L 753.65521,86.804573 L 753.65521,50.720498 L 889.58556,50.720498 L 889.58556,86.804573 L 876.97664,86.804573 L 876.97664,62.919376 L 831.97406,62.919376 L 831.97406,192.90405 L 851.55377,192.90405 L 851.55377,203.77028 L 791.68701,203.77028"
       style="font-size:209.94371;font-style:normal;font-variant:normal;font-weight:normal;font-stretch:normal;fill:#00008e;fill-opacity:1.0000000;stroke:none;stroke-width:1.0000000px;stroke-linecap:butt;stroke-linejoin:miter;stroke-opacity:1.0000000;font-family:Bitstream Vera Serif;text-anchor:start;writing-mode:lr-tb" />
    <path
       id="text2115"
       d="M 494.79651,196.28694 L 494.79651,161.43300 L 506.58534,161.53551 C 506.92701,173.15352 510.27572,181.76449 516.63147,187.36843 C 523.05548,192.90407 532.79407,195.67188 545.84727,195.67187 C 558.01190,195.67188 567.27210,193.27994 573.62791,188.49606 C 580.05186,183.64386 583.26389,176.60474 583.26400,167.37867 C 583.26389,159.99788 581.31617,154.32558 577.42084,150.36175 C 573.59364,146.39803 565.46106,142.53676 553.02308,138.77794 L 532.82830,132.72976 C 518.20327,128.28767 507.88378,122.75205 501.86980,116.12288 C 495.92411,109.49390 492.95128,100.40454 492.95130,88.854804 C 492.95128,75.870132 497.56430,65.789837 506.79036,58.613888 C 516.01636,51.438230 528.96698,47.850329 545.64225,47.850173 C 552.74964,47.850329 560.54051,48.636250 569.01489,50.207939 C 577.48908,51.711594 586.51009,53.932676 596.07794,56.871192 L 596.07794,89.469873 L 584.49414,89.469873 C 583.33223,78.672112 579.71016,70.881240 573.62791,66.097234 C 567.61380,61.245161 558.42194,58.819056 546.05229,58.818912 C 535.25435,58.819056 527.01926,61.040138 521.34700,65.482164 C 515.74300,69.856125 512.94102,76.246007 512.94105,84.651829 C 512.94102,91.964433 515.05959,97.705076 519.29677,101.87377 C 523.53387,106.04268 532.52071,110.17731 546.25732,114.27767 L 565.22196,119.91581 C 579.09509,124.08470 588.97036,129.41529 594.84780,135.90762 C 600.79335,142.33174 603.76618,150.97687 603.76631,161.84305 C 603.76618,176.67308 599.01649,187.84683 589.51720,195.36433 C 580.01769,202.88185 565.87111,206.64060 547.07741,206.64061 C 538.67140,206.64060 530.09460,205.78634 521.34700,204.07782 C 512.66765,202.36929 503.81750,199.77233 494.79651,196.28694"
       style="font-size:209.94371;font-style:normal;font-variant:normal;font-weight:normal;font-stretch:normal;fill:#008400;fill-opacity:1.0000000;stroke:none;stroke-width:1.0000000px;stroke-linecap:butt;stroke-linejoin:miter;stroke-opacity:1.0000000;font-family:Bitstream Vera Serif;text-anchor:start;writing-mode:lr-tb" />
    <path
       id="text2119"
       d="M 361.14053,96.338149 C 358.74846,83.558492 353.75957,74.127437 346.17384,68.044954 C 338.58787,61.894401 328.02919,58.819056 314.49776,58.818912 C 296.86570,58.819056 283.71006,64.491358 275.03080,75.835833 C 266.35145,87.180565 262.01180,104.33415 262.01183,127.29665 C 262.01180,149.78091 266.48813,166.79781 275.44085,178.34741 C 284.39347,189.89706 297.54911,195.67188 314.90780,195.67187 C 322.63025,195.67188 330.01107,194.71510 337.05031,192.80154 C 344.08932,190.88801 350.78673,188.01769 357.14257,184.19057 L 357.14257,144.72361 L 328.33682,144.72361 L 328.33682,133.75487 L 377.95243,133.75487 L 377.95243,190.85382 C 368.86292,196.11609 359.05599,200.07987 348.53160,202.74517 C 338.07531,205.34212 326.86739,206.64060 314.90780,206.64061 C 291.80846,206.64060 273.28806,199.43063 259.34653,185.01066 C 245.47328,170.52239 238.53667,151.28441 238.53668,127.29665 C 238.53667,103.10401 245.50745,83.831856 259.44904,69.480116 C 273.39057,55.060302 292.15017,47.850329 315.72790,47.850173 C 324.47545,47.850329 333.49646,48.875443 342.79095,50.925520 C 352.15355,52.907561 362.09717,55.948735 372.62182,60.049051 L 372.62182,96.338149 L 361.14053,96.338149"
       style="font-size:209.94371;font-style:normal;font-variant:normal;font-weight:normal;font-stretch:normal;fill:#00008e;fill-opacity:1.0000000;stroke:none;stroke-width:1.0000000px;stroke-linecap:butt;stroke-linejoin:miter;stroke-opacity:1.0000000;font-family:Bitstream Vera Serif;text-anchor:start;writing-mode:lr-tb" />
    <path
       style="fill:#00008e;fill-opacity:1.0000000;stroke:none;stroke-width:12.500000;stroke-miterlimit:4.0000000;stroke-opacity:1.0000000"
       d="M 95.637192,176.89490 L 56.077093,125.42680 L 95.601611,73.819386 L 95.637192,176.89490 z "
       id="path1299" />
    <path
       style="fill:#00008e;fill-opacity:1.0000000;stroke:none;stroke-width:12.500000;stroke-miterlimit:4.0000000;stroke-opacity:1.0000000"
       d="M 894.50566,176.89490 L 934.06576,125.42680 L 894.54124,73.819389 L 894.50566,176.89490 z "
       id="path4432" />
    <path
       id="path4434"
       d="M 624.43771,196.28694 L 624.43771,161.43300 L 636.22654,161.53551 C 636.56821,173.15352 639.91692,181.76449 646.27267,187.36843 C 652.69668,192.90407 662.43527,195.67188 675.48847,195.67187 C 687.65310,195.67188 696.91330,193.27994 703.26911,188.49606 C 709.69306,183.64386 712.90509,176.60474 712.90520,167.37867 C 712.90509,159.99788 710.95737,154.32558 707.06204,150.36175 C 703.23484,146.39803 695.10226,142.53676 682.66428,138.77794 L 662.46950,132.72976 C 647.84447,128.28767 637.52498,122.75205 631.51100,116.12288 C 625.56531,109.49390 622.59248,100.40454 622.59250,88.854807 C 622.59248,75.870133 627.20550,65.789838 636.43156,58.613889 C 645.65756,51.438231 658.60818,47.850330 675.28345,47.850174 C 682.39084,47.850330 690.18171,48.636251 698.65609,50.207940 C 707.13028,51.711595 716.15129,53.932677 725.71914,56.871193 L 725.71914,89.469877 L 714.13534,89.469877 C 712.97343,78.672113 709.35136,70.881241 703.26911,66.097235 C 697.25500,61.245162 688.06314,58.819057 675.69349,58.818913 C 664.89555,58.819057 656.66046,61.040139 650.98820,65.482165 C 645.38420,69.856126 642.58222,76.246008 642.58225,84.651827 C 642.58222,91.964437 644.70079,97.705077 648.93797,101.87377 C 653.17507,106.04268 662.16191,110.17731 675.89852,114.27767 L 694.86316,119.91581 C 708.73629,124.08470 718.61156,129.41529 724.48900,135.90762 C 730.43455,142.33174 733.40738,150.97687 733.40751,161.84305 C 733.40738,176.67308 728.65769,187.84683 719.15840,195.36433 C 709.65889,202.88185 695.51231,206.64060 676.71861,206.64061 C 668.31260,206.64060 659.73580,205.78634 650.98820,204.07782 C 642.30885,202.36929 633.45870,199.77233 624.43771,196.28694"
       style="font-size:209.94371;font-style:normal;font-variant:normal;font-weight:normal;font-stretch:normal;fill:#a80000;fill-opacity:1.0000000;stroke:none;stroke-width:1.0000000px;stroke-linecap:butt;stroke-linejoin:miter;stroke-opacity:1.0000000;font-family:Bitstream Vera Serif;text-anchor:start;writing-mode:lr-tb" />
  </g>
</svg>
